mtllib single spike.mtl
g g0
v -0.4 0.0607314 0
v -0.466987 0.0607315 -0.25
v -0.65 0.0607315 -0.433013
v -0.9 0.0607315 -0.5
v -1.15 0.0607315 -0.433013
v -1.33301 0.0607315 -0.25
v -1.4 0.0607314 4.47035e-008
v -1.33301 0.0607314 0.25
v -1.15 0.0607314 0.433013
v -0.9 0.0607314 0.5
v -0.65 0.0607314 0.433013
v -0.466987 0.0607314 0.25
v -0.9 1.45845 0
vn 0.941568 0.336822 -9.22085e-008
vn 0.815422 0.336822 -0.470784
vn 0.903104 0.354748 -0.241986
vn 0.815422 0.336822 -0.470784
vn 0.470784 0.336822 -0.815422
vn 0.661118 0.354748 -0.661118
vn 0.470784 0.336822 -0.815422
vn 0 0.336822 -0.941568
vn 0.241986 0.354748 -0.903104
vn 0 0.336822 -0.941568
vn -0.470784 0.336822 -0.815422
vn -0.241986 0.354748 -0.903104
vn -0.470784 0.336822 -0.815422
vn -0.815422 0.336822 -0.470784
vn -0.661118 0.354748 -0.661118
vn -0.815422 0.336822 -0.470784
vn -0.941568 0.336822 2.61257e-007
vn -0.903104 0.354748 -0.241986
vn -0.941568 0.336822 2.61257e-007
vn -0.815422 0.336822 0.470784
vn -0.903104 0.354748 0.241986
vn -0.815422 0.336822 0.470784
vn -0.470784 0.336822 0.815422
vn -0.661118 0.354748 0.661118
vn -0.470784 0.336822 0.815422
vn 2.30521e-008 0.336822 0.941568
vn -0.241986 0.354748 0.903104
vn 2.30521e-008 0.336822 0.941568
vn 0.470784 0.336822 0.815422
vn 0.241986 0.354748 0.903104
vn 0.470784 0.336822 0.815422
vn 0.815422 0.336822 0.470784
vn 0.661118 0.354748 0.661118
vn 0.815422 0.336822 0.470784
vn 0.941568 0.336822 -9.22085e-008
vn 0.903104 0.354748 0.241986
vt 1 0.5
vt 0.933013 0.75
vt 0.5 0.5
vt 0.933013 0.75
vt 0.75 0.933013
vt 0.5 0.5
vt 0.75 0.933013
vt 0.5 1
vt 0.5 0.5
vt 0.5 1
vt 0.25 0.933013
vt 0.5 0.5
vt 0.25 0.933013
vt 0.0669873 0.75
vt 0.5 0.5
vt 0.0669873 0.75
vt 0 0.5
vt 0.5 0.5
vt 0 0.5
vt 0.0669874 0.25
vt 0.5 0.5
vt 0.0669874 0.25
vt 0.25 0.0669873
vt 0.5 0.5
vt 0.25 0.0669873
vt 0.5 0
vt 0.5 0.5
vt 0.5 0
vt 0.75 0.0669873
vt 0.5 0.5
vt 0.75 0.0669873
vt 0.933013 0.25
vt 0.5 0.5
vt 0.933013 0.25
vt 1 0.5
vt 0.5 0.5
usemtl acmat_0
f 1/1/1 2/2/2 13/3/3
f 2/4/4 3/5/5 13/6/6
f 3/7/7 4/8/8 13/9/9
f 4/10/10 5/11/11 13/12/12
f 5/13/13 6/14/14 13/15/15
f 6/16/16 7/17/17 13/18/18
f 7/19/19 8/20/20 13/21/21
f 8/22/22 9/23/23 13/24/24
f 9/25/25 10/26/26 13/27/27
f 10/28/28 11/29/29 13/30/30
f 11/31/31 12/32/32 13/33/33
f 12/34/34 1/35/35 13/36/36
